<mxfile host="app.diagrams.net" modified="2022-02-28T06:14:58.695Z" agent="5.0 (Macintosh; Intel Mac OS X 10_15_7) AppleWebKit/537.36 (KHTML, like Gecko) Chrome/98.0.4758.102 Safari/537.36" etag="lNXHmw9u6BC8GqbpF8T2" version="16.2.7" type="github">
  <diagram id="Q5mlm8pNXK8vwRuRoZ7s" name="Page-1">
    <mxGraphModel dx="946" dy="588" grid="0" gridSize="10" guides="1" tooltips="1" connect="1" arrows="1" fold="1" page="1" pageScale="1" pageWidth="2339" pageHeight="3300" math="0" shadow="0">
      <root>
        <mxCell id="0" />
        <mxCell id="1" parent="0" />
        <mxCell id="qyKtld63JDXhDD5pqwNW-1" value="&lt;ul&gt;&lt;li&gt;开源可定制化&lt;/li&gt;&lt;li&gt;兼容多种数据库迁移&lt;/li&gt;&lt;li&gt;支持迁移过程修改字段结构&lt;/li&gt;&lt;li&gt;&lt;br&gt;&lt;/li&gt;&lt;/ul&gt;" style="text;strokeColor=none;fillColor=none;html=1;whiteSpace=wrap;verticalAlign=middle;overflow=hidden;" vertex="1" parent="1">
          <mxGeometry x="387" y="226.5" width="205" height="84.5" as="geometry" />
        </mxCell>
        <mxCell id="qyKtld63JDXhDD5pqwNW-2" value="&lt;ul&gt;&lt;li&gt;主键超过10位报错&lt;/li&gt;&lt;li&gt;字段匹配不太友好&amp;nbsp;&lt;/li&gt;&lt;li&gt;定制化程度不高&lt;/li&gt;&lt;li&gt;黑盒操作，出了问题难以排查&lt;/li&gt;&lt;/ul&gt;" style="text;strokeColor=none;fillColor=none;html=1;whiteSpace=wrap;verticalAlign=middle;overflow=hidden;" vertex="1" parent="1">
          <mxGeometry x="133" y="210" width="184" height="127" as="geometry" />
        </mxCell>
      </root>
    </mxGraphModel>
  </diagram>
</mxfile>
